<svg width="28" height="28" viewBox="0 0 28 28" fill="none" xmlns="http://www.w3.org/2000/svg">
<rect y="24" width="4" height="4" fill="#CCCACA"/>
<rect y="16" width="4" height="4" fill="#CCCACA"/>
<rect y="8" width="4" height="4" fill="#CCCACA"/>
<rect width="4" height="4" fill="#CCCACA"/>
<rect x="4" y="12" width="4" height="4" fill="#CCCACA"/>
<rect x="4" y="20" width="4" height="4" fill="#CCCACA"/>
<rect x="8" y="24" width="4" height="4" fill="#CCCACA"/>
<rect x="16" y="16" width="4" height="4" fill="#CCCACA"/>
<rect x="24" y="24" width="4" height="4" fill="#CCCACA"/>
<rect x="24" y="16" width="4" height="4" fill="#CCCACA"/>
<rect x="24" y="8" width="4" height="4" fill="#CCCACA"/>
<rect x="8" width="4" height="4" fill="#CCCACA"/>
<rect x="16" width="4" height="4" fill="#CCCACA"/>
<rect x="24" width="4" height="4" fill="#CCCACA"/>
<rect x="8" y="16" width="4" height="4" fill="#CCCACA"/>
<rect x="12" y="12" width="4" height="4" fill="#CCCACA"/>
<rect x="16" y="8" width="4" height="4" fill="#CCCACA"/>
<rect x="20" y="4" width="4" height="4" fill="#CCCACA"/>
<rect x="20" y="12" width="4" height="4" fill="#CCCACA"/>
<rect x="12" y="20" width="4" height="4" fill="#CCCACA"/>
</svg>
