<svg width="36" height="44" viewBox="0 0 36 44" fill="none" xmlns="http://www.w3.org/2000/svg">
<rect y="40" width="4" height="4" fill="#212020"/>
<rect y="32" width="4" height="4" fill="#212020"/>
<rect y="24" width="4" height="4" fill="#212020"/>
<rect y="16" width="4" height="4" fill="#212020"/>
<rect y="8" width="4" height="4" fill="#212020"/>
<rect width="4" height="4" fill="#212020"/>
<rect x="4" y="20" width="4" height="4" fill="#212020"/>
<rect x="12" y="4" width="4" height="4" fill="#212020"/>
<rect x="20" y="4" width="4" height="4" fill="#212020"/>
<rect x="28" y="4" width="4" height="4" fill="#212020"/>
<rect x="28" y="12" width="4" height="4" fill="#212020"/>
<rect x="28" y="20" width="4" height="4" fill="#212020"/>
<rect x="28" y="28" width="4" height="4" fill="#212020"/>
<rect x="28" y="36" width="4" height="4" fill="#212020"/>
<rect x="4" y="28" width="4" height="4" fill="#212020"/>
<rect x="4" y="4" width="4" height="4" fill="#212020"/>
<rect x="4" y="36" width="4" height="4" fill="#212020"/>
<rect x="4" y="12" width="4" height="4" fill="#212020"/>
<rect x="8" y="40" width="4" height="4" fill="#212020"/>
<rect x="16" y="40" width="4" height="4" fill="#212020"/>
<rect x="24" y="40" width="4" height="4" fill="#212020"/>
<rect x="32" y="40" width="4" height="4" fill="#212020"/>
<rect x="8" y="32" width="4" height="4" fill="#212020"/>
<rect x="16" y="32" width="4" height="4" fill="#212020"/>
<rect x="24" y="32" width="4" height="4" fill="#212020"/>
<rect x="32" y="32" width="4" height="4" fill="#212020"/>
<rect x="32" y="24" width="4" height="4" fill="#212020"/>
<rect x="8" y="8" width="4" height="4" fill="#212020"/>
<rect x="8" width="4" height="4" fill="#212020"/>
<rect x="16" y="8" width="4" height="4" fill="#212020"/>
<rect x="16" width="4" height="4" fill="#212020"/>
<rect x="32" y="16" width="4" height="4" fill="#212020"/>
<rect x="24" y="8" width="4" height="4" fill="#212020"/>
<rect x="32" y="8" width="4" height="4" fill="#212020"/>
<rect x="24" width="4" height="4" fill="#212020"/>
<rect x="32" width="4" height="4" fill="#212020"/>
<rect x="12" y="36" width="4" height="4" fill="#212020"/>
<rect x="20" y="36" width="4" height="4" fill="#212020"/>
</svg>
