<svg width="36" height="44" viewBox="0 0 36 44" fill="none" xmlns="http://www.w3.org/2000/svg">
<rect y="40" width="4" height="4" fill="#CCCACA"/>
<rect y="32" width="4" height="4" fill="#CCCACA"/>
<rect y="24" width="4" height="4" fill="#CCCACA"/>
<rect y="16" width="4" height="4" fill="#CCCACA"/>
<rect y="8" width="4" height="4" fill="#CCCACA"/>
<rect width="4" height="4" fill="#CCCACA"/>
<rect x="8" y="40" width="4" height="4" fill="#CCCACA"/>
<rect x="16" y="40" width="4" height="4" fill="#CCCACA"/>
<rect x="24" y="40" width="4" height="4" fill="#CCCACA"/>
<rect x="32" y="40" width="4" height="4" fill="#CCCACA"/>
<rect x="8" y="32" width="4" height="4" fill="#CCCACA"/>
<rect x="16" y="32" width="4" height="4" fill="#CCCACA"/>
<rect x="24" y="32" width="4" height="4" fill="#CCCACA"/>
<rect x="32" y="32" width="4" height="4" fill="#CCCACA"/>
<rect x="32" y="24" width="4" height="4" fill="#CCCACA"/>
<rect x="8" y="8" width="4" height="4" fill="#CCCACA"/>
<rect x="8" width="4" height="4" fill="#CCCACA"/>
<rect x="16" y="8" width="4" height="4" fill="#CCCACA"/>
<rect x="16" width="4" height="4" fill="#CCCACA"/>
<rect x="32" y="16" width="4" height="4" fill="#CCCACA"/>
<rect x="24" y="8" width="4" height="4" fill="#CCCACA"/>
<rect x="32" y="8" width="4" height="4" fill="#CCCACA"/>
<rect x="24" width="4" height="4" fill="#CCCACA"/>
<rect x="32" width="4" height="4" fill="#CCCACA"/>
</svg>
