<svg width="28" height="28" viewBox="0 0 28 28" fill="none" xmlns="http://www.w3.org/2000/svg">
<rect y="24" width="4" height="4" fill="#212020"/>
<rect y="16" width="4" height="4" fill="#212020"/>
<rect y="8" width="4" height="4" fill="#212020"/>
<rect x="24" y="12" width="4" height="4" fill="#212020"/>
<rect x="4" y="4" width="4" height="4" fill="#212020"/>
<rect y="12" width="4" height="4" fill="#212020"/>
<rect x="6" y="16" width="4" height="4" fill="#212020"/>
<rect x="8" y="24" width="4" height="4" fill="#212020"/>
<rect x="16" y="24" width="4" height="4" fill="#212020"/>
<rect x="24" y="24" width="4" height="4" fill="#212020"/>
<rect x="24" y="16" width="4" height="4" fill="#212020"/>
<rect x="24" y="8" width="4" height="4" fill="#212020"/>
<rect x="6" y="10" width="4" height="4" fill="#212020"/>
<rect x="16" y="4" width="4" height="4" fill="#212020"/>
<rect x="8" y="4" width="4" height="4" fill="#212020"/>
<rect x="12" y="4" width="4" height="4" fill="#212020"/>
<rect x="24" y="20" width="4" height="4" fill="#212020"/>
<rect x="18" y="10" width="4" height="4" fill="#212020"/>
<rect x="18" y="16" width="4" height="4" fill="#212020"/>
<rect width="4" height="4" fill="#212020"/>
<rect x="24" width="4" height="4" fill="#212020"/>
<rect x="18" width="4" height="4" fill="#212020"/>
<rect x="12" width="4" height="4" fill="#212020"/>
<rect x="6" width="4" height="4" fill="#212020"/>
<rect x="20" y="4" width="4" height="4" fill="#212020"/>
<rect x="12" y="10" width="4" height="4" fill="#212020"/>
<rect x="12" y="16" width="4" height="4" fill="#212020"/>
<rect x="20" y="24" width="4" height="4" fill="#212020"/>
</svg>
