<svg width="36" height="36" viewBox="0 0 36 36" fill="none" xmlns="http://www.w3.org/2000/svg">
<rect x="4" y="32" width="4" height="4" fill="#D9D9D9"/>
<rect x="4" y="24" width="4" height="4" fill="#D9D9D9"/>
<rect x="4" y="16" width="4" height="4" fill="#D9D9D9"/>
<rect y="20" width="4" height="4" fill="#D9D9D9"/>
<rect x="32" y="20" width="4" height="4" fill="#D9D9D9"/>
<rect x="28" y="20" width="4" height="4" fill="#D9D9D9"/>
<rect x="8" y="12" width="4" height="4" fill="#D9D9D9"/>
<rect x="4" y="20" width="4" height="4" fill="#D9D9D9"/>
<rect x="8" y="28" width="4" height="4" fill="#D9D9D9"/>
<rect x="12" y="32" width="4" height="4" fill="#D9D9D9"/>
<rect x="20" y="32" width="4" height="4" fill="#D9D9D9"/>
<rect x="28" y="32" width="4" height="4" fill="#D9D9D9"/>
<rect x="28" y="24" width="4" height="4" fill="#D9D9D9"/>
<rect x="28" y="16" width="4" height="4" fill="#D9D9D9"/>
<rect x="12" y="8" width="4" height="4" fill="#D9D9D9"/>
<rect x="20" y="8" width="4" height="4" fill="#D9D9D9"/>
<rect x="24" y="8" width="4" height="4" fill="#D9D9D9"/>
<rect x="20" y="4" width="4" height="4" fill="#D9D9D9"/>
<rect x="28" y="28" width="4" height="4" fill="#D9D9D9"/>
<rect x="16" y="4" width="4" height="4" fill="#D9D9D9"/>
<rect x="16" width="4" height="4" fill="#D9D9D9"/>
<rect x="24" y="12" width="4" height="4" fill="#D9D9D9"/>
<rect x="22" y="22" width="4" height="4" fill="#D9D9D9"/>
<rect x="8" y="8" width="4" height="4" fill="#D9D9D9"/>
<rect x="24" y="32" width="4" height="4" fill="#D9D9D9"/>
</svg>
