<svg width="34" height="32" viewBox="0 0 34 32" fill="none" xmlns="http://www.w3.org/2000/svg">
<rect x="14" y="14" width="4" height="4" fill="#CCCACA"/>
<rect x="12" width="4" height="4" fill="#CCCACA"/>
<rect x="4" width="4" height="4" fill="#CCCACA"/>
<rect x="8" width="4" height="4" fill="#CCCACA"/>
<rect width="4" height="4" fill="#CCCACA"/>
<rect y="8" width="4" height="4" fill="#CCCACA"/>
<rect y="12" width="4" height="4" fill="#CCCACA"/>
<rect y="4" width="4" height="4" fill="#CCCACA"/>
<rect y="20" width="4" height="4" fill="#CCCACA"/>
<rect y="24" width="4" height="4" fill="#CCCACA"/>
<rect y="28" width="4" height="4" fill="#CCCACA"/>
<rect y="16" width="4" height="4" fill="#CCCACA"/>
<rect x="4" y="28" width="4" height="4" fill="#CCCACA"/>
<rect x="14" y="28" width="4" height="4" fill="#CCCACA"/>
<rect x="26" y="18" width="4" height="4" fill="#CCCACA"/>
<rect x="18" y="14" width="4" height="4" fill="#CCCACA"/>
<rect x="26" y="10" width="4" height="4" fill="#CCCACA"/>
<rect x="26" y="14" width="4" height="4" fill="#CCCACA"/>
<rect x="22" y="6" width="4" height="4" fill="#CCCACA"/>
<rect x="22" y="14" width="4" height="4" fill="#CCCACA"/>
<rect x="30" y="14" width="4" height="4" fill="#CCCACA"/>
<rect x="22" y="22" width="4" height="4" fill="#CCCACA"/>
</svg>
