<svg width="36" height="36" viewBox="0 0 36 36" fill="none" xmlns="http://www.w3.org/2000/svg">
<rect x="4" y="8" width="4" height="4" fill="#CCCACA"/>
<rect y="12" width="4" height="4" fill="#CCCACA"/>
<rect y="20" width="4" height="4" fill="#CCCACA"/>
<rect x="8" y="28" width="4" height="4" fill="#CCCACA"/>
<rect x="4" y="24" width="4" height="4" fill="#CCCACA"/>
<rect x="4" y="16" width="4" height="4" fill="#CCCACA"/>
<rect x="8" y="4" width="4" height="4" fill="#CCCACA"/>
<rect x="12" width="4" height="4" fill="#CCCACA"/>
<rect x="20" width="4" height="4" fill="#CCCACA"/>
<rect width="4" height="4" transform="matrix(-1 0 0 1 32 8)" fill="#CCCACA"/>
<rect width="4" height="4" transform="matrix(-1 0 0 1 20 28)" fill="#CCCACA"/>
<rect width="4" height="4" transform="matrix(-1 0 0 1 20 4)" fill="#CCCACA"/>
<rect width="4" height="4" transform="matrix(-1 0 0 1 20 16)" fill="#CCCACA"/>
<rect width="4" height="4" transform="matrix(-1 0 0 1 28 28)" fill="#CCCACA"/>
<rect width="4" height="4" transform="matrix(-1 0 0 1 24 32)" fill="#CCCACA"/>
<rect width="4" height="4" transform="matrix(-1 0 0 1 16 32)" fill="#CCCACA"/>
<rect width="4" height="4" transform="matrix(-1 0 0 1 32 24)" fill="#CCCACA"/>
<rect width="4" height="4" transform="matrix(-1 0 0 1 36 20)" fill="#CCCACA"/>
<rect width="4" height="4" transform="matrix(-1 0 0 1 36 12)" fill="#CCCACA"/>
<rect width="4" height="4" transform="matrix(-1 0 0 1 32 16)" fill="#CCCACA"/>
<rect width="4" height="4" transform="matrix(-1 0 0 1 28 4)" fill="#CCCACA"/>
</svg>
